<svg width="250" height="250" viewBox="0 0 250 250" fill="none" xmlns="http://www.w3.org/2000/svg">
<path d="M57.621 3.07673C23.947 11.9063 0.269937 42.4086 0.00685866 76.9243C-0.256219 92.7106 7.10997 118.397 11.5823 118.397C12.8977 118.397 11.5823 113.313 8.95151 106.891C1.58533 90.57 1.8484 64.6164 10.0038 47.4923C17.6331 30.3682 36.5747 13.2442 52.8856 8.42801C81.5611 0.133537 103.923 7.09019 136.018 34.3817C145.752 42.6762 154.434 48.8301 154.96 48.295C157.064 46.1545 120.497 16.7225 107.606 10.0334C93.3996 2.80917 70.2487 -0.401593 57.621 3.07673Z" fill="black"/>
<path d="M2.44365 191.396C11.1252 225.645 41.1161 249.725 75.0532 249.993C90.5748 250.26 115.83 242.769 115.83 238.22C115.83 236.882 110.832 238.22 104.518 240.896C88.4702 248.388 62.9516 248.12 46.1146 239.825C29.2776 232.066 12.4406 212.802 7.70521 196.213C-0.450209 167.048 6.38982 144.305 33.2238 111.663C41.3792 101.763 47.43 92.9331 46.9039 92.3979C44.7992 90.2574 15.8606 127.449 9.28368 140.559C2.18057 155.008 -0.976367 178.553 2.44365 191.396Z" fill="black"/>
<path d="M191.221 247.764C224.895 238.934 248.572 208.432 248.835 173.916C249.098 158.13 241.732 132.444 237.259 132.444C235.944 132.444 237.259 137.528 239.89 143.949C247.256 160.271 246.993 186.224 238.838 203.348C231.208 220.472 212.267 237.596 195.956 242.413C167.28 250.707 144.919 243.75 112.823 216.459C103.089 208.164 94.4079 202.011 93.8817 202.546C91.7771 204.686 128.345 234.118 141.236 240.807C155.442 248.031 178.593 251.242 191.221 247.764Z" fill="black"/>
<path d="M248.616 58.6034C239.934 24.3553 209.943 0.274543 176.006 0.00697742C160.485 -0.260587 135.229 7.23119 135.229 11.7798C135.229 13.1176 140.228 11.7798 146.542 9.10414C162.589 1.61236 188.108 1.87992 204.945 10.1744C221.782 17.9337 238.619 37.1983 243.354 53.7873C251.51 82.9517 244.67 105.695 217.836 138.337C209.68 148.237 203.63 157.067 204.156 157.602C206.26 159.742 235.199 122.551 241.776 109.441C248.879 94.9921 252.036 71.4465 248.616 58.6034Z" fill="black"/>
<path d="M56.043 17.5257C32.3659 24.2148 15.792 43.4793 12.6351 68.3628C10.7935 81.2058 15.2659 103.681 20.0013 106.624C21.5797 107.695 24.9998 106.089 27.8936 103.146C32.3659 98.3299 32.629 96.4569 29.9982 86.5571C22.6321 58.998 44.9937 30.1012 73.4061 30.1012C78.4046 30.1012 89.98 34.3822 99.977 39.4659C116.025 48.0279 135.229 52.0414 135.229 46.6901C135.229 43.4793 106.817 23.6796 97.6093 20.4689C82.6139 15.1176 68.4076 14.3149 56.043 17.5257Z" fill="#E4B302"/>
<path d="M231.053 58.6267C224.476 34.546 205.535 17.6895 181.069 14.4787C168.441 12.6058 146.342 17.1544 143.448 21.9705C142.396 23.5759 143.975 27.0542 146.868 29.9974C151.604 34.546 153.445 34.8136 163.179 32.1379C190.276 24.6462 218.689 47.3891 218.689 76.2859C218.689 81.3696 214.48 93.1424 209.481 103.31C201.063 119.631 197.116 139.163 202.378 139.163C205.535 139.163 225.003 110.267 228.16 100.902C233.421 85.6507 234.21 71.2022 231.053 58.6267Z" fill="#37E328"/>
<path d="M16.732 192.913C23.3089 216.994 42.2505 233.85 66.7168 237.061C79.3445 238.934 101.443 234.385 104.337 229.569C105.389 227.964 103.811 224.486 100.917 221.542C96.1815 216.994 94.34 216.726 84.6061 219.402C57.5091 226.894 29.0966 204.151 29.0966 175.254C29.0966 170.17 33.3059 158.397 38.3044 148.23C46.7229 131.909 50.669 112.376 45.4075 112.376C42.2505 112.376 22.7828 141.273 19.6258 150.638C14.3643 165.889 13.575 180.338 16.732 192.913Z" fill="#2815FF"/>
<path d="M192.712 233.915C216.389 227.226 232.963 207.962 236.12 183.078C237.962 170.235 233.489 147.76 228.754 144.817C227.175 143.747 223.755 145.352 220.862 148.295C216.389 153.111 216.126 154.984 218.757 164.884C226.123 192.443 203.761 221.34 175.349 221.34C170.351 221.34 158.775 217.059 148.778 211.975C132.73 203.413 113.526 199.4 113.526 204.751C113.526 207.962 141.938 227.762 151.146 230.972C166.141 236.324 180.347 237.126 192.712 233.915Z" fill="#D13A26"/>
<ellipse cx="125.411" cy="124.715" rx="47.3775" ry="48.1853" fill="black"/>
<ellipse cx="64.0989" cy="181.403" rx="16.7215" ry="17.0066" fill="#43FF32"/>
<ellipse cx="181.149" cy="181.403" rx="16.7215" ry="17.0066" fill="#FFC700"/>
<ellipse cx="181.149" cy="65.1919" rx="16.7215" ry="17.0066" fill="#1400FF"/>
<ellipse cx="64.0989" cy="65.1919" rx="16.7215" ry="17.0066" fill="#FF4B33"/>
<circle cx="126.302" cy="123.698" r="27.3437" fill="white"/>
</svg>
