<svg width="419" height="89" viewBox="0 0 419 89" fill="none" xmlns="http://www.w3.org/2000/svg">
<path d="M25.632 60.424C25.216 60.808 24.624 61 23.856 61C23.12 60.968 22.544 60.744 22.128 60.328L10.464 47.8L21.456 35.512C21.872 35.064 22.448 34.808 23.184 34.744C23.952 34.68 24.544 34.84 24.96 35.224C25.44 35.672 25.712 36.184 25.776 36.76C25.84 37.304 25.664 37.8 25.248 38.248L16.56 47.56L25.776 57.448C26.192 57.864 26.4 58.36 26.4 58.936C26.4 59.48 26.144 59.976 25.632 60.424ZM6.624 61.048C5.92 61.048 5.36 60.824 4.944 60.376C4.528 59.896 4.32 59.304 4.32 58.6V37.192C4.32 36.456 4.528 35.864 4.944 35.416C5.36 34.968 5.92 34.744 6.624 34.744C7.36 34.744 7.952 34.968 8.4 35.416C8.88 35.864 9.12 36.456 9.12 37.192V45.208H15.264V49.72H9.12V58.6C9.12 59.304 8.88 59.896 8.4 60.376C7.952 60.824 7.36 61.048 6.624 61.048ZM32.9261 61C32.2221 61 31.6301 60.776 31.1501 60.328C30.7021 59.848 30.4781 59.256 30.4781 58.552V37.144C30.5421 36.44 30.7981 35.864 31.2461 35.416C31.6941 34.968 32.2541 34.744 32.9261 34.744C33.6621 34.744 34.2541 34.968 34.7021 35.416C35.1501 35.864 35.3741 36.456 35.3741 37.192V45.448H44.6861V46.408C46.4461 46.408 47.9981 46.712 49.3421 47.32C50.7181 47.928 51.7901 48.776 52.5581 49.864C53.3261 50.92 53.7101 52.152 53.7101 53.56C53.7101 55 53.3261 56.28 52.5581 57.4C51.7901 58.52 50.7181 59.4 49.3421 60.04C47.9981 60.68 46.4461 61 44.6861 61H32.9261ZM35.3741 56.44H44.6861C45.9661 56.44 47.0061 56.136 47.8061 55.528C48.6061 54.888 49.0061 54.072 49.0061 53.08C49.0061 52.024 48.6061 51.16 47.8061 50.488C47.0061 49.816 45.9661 49.48 44.6861 49.48H35.3741V56.44ZM40.8941 48.04V45.448H45.4541C46.2541 45.448 46.9101 45.144 47.4221 44.536C47.9341 43.896 48.1901 43.096 48.1901 42.136C48.1901 41.304 47.8861 40.616 47.2781 40.072C46.6701 39.528 45.9021 39.256 44.9741 39.256H32.9741V34.744H44.9741C46.4781 34.744 47.8061 35.048 48.9581 35.656C50.1421 36.232 51.0701 37.048 51.7421 38.104C52.4141 39.128 52.7501 40.312 52.7501 41.656C52.7501 43.512 52.0461 45.048 50.6381 46.264C49.2621 47.448 47.5341 48.04 45.4541 48.04H40.8941ZM68.7521 61.192C66.4161 61.192 64.3201 60.616 62.4641 59.464C60.6081 58.28 59.1361 56.696 58.0481 54.712C56.9921 52.696 56.4641 50.424 56.4641 47.896C56.4641 45.368 57.0401 43.096 58.1921 41.08C59.3761 39.064 60.9601 37.48 62.9441 36.328C64.9601 35.144 67.2161 34.552 69.7121 34.552C72.2081 34.552 74.4481 35.144 76.4321 36.328C78.4161 37.48 79.9841 39.064 81.1361 41.08C82.3201 43.096 82.9121 45.368 82.9121 47.896H81.0401C81.0401 50.424 80.4961 52.696 79.4081 54.712C78.3521 56.696 76.8961 58.28 75.0401 59.464C73.1841 60.616 71.0881 61.192 68.7521 61.192ZM69.7121 56.872C71.3441 56.872 72.8001 56.488 74.0801 55.72C75.3601 54.92 76.3681 53.848 77.1041 52.504C77.8401 51.128 78.2081 49.592 78.2081 47.896C78.2081 46.168 77.8401 44.632 77.1041 43.288C76.3681 41.912 75.3601 40.84 74.0801 40.072C72.8001 39.272 71.3441 38.872 69.7121 38.872C68.1121 38.872 66.6561 39.272 65.3441 40.072C64.0641 40.84 63.0401 41.912 62.2721 43.288C61.5361 44.632 61.1681 46.168 61.1681 47.896C61.1681 49.592 61.5361 51.128 62.2721 52.504C63.0401 53.848 64.0641 54.92 65.3441 55.72C66.6561 56.488 68.1121 56.872 69.7121 56.872ZM80.4641 61.048C79.7601 61.048 79.1681 60.824 78.6881 60.376C78.2401 59.896 78.0161 59.304 78.0161 58.6V51.256L78.9281 46.168L82.9121 47.896V58.6C82.9121 59.304 82.6721 59.896 82.1921 60.376C81.7441 60.824 81.1681 61.048 80.4641 61.048ZM110.359 61C109.655 61 109.063 60.776 108.583 60.328C108.135 59.848 107.911 59.256 107.911 58.552V37.192C107.911 36.456 108.135 35.864 108.583 35.416C109.063 34.968 109.655 34.744 110.359 34.744C111.095 34.744 111.671 34.968 112.087 35.416C112.503 35.864 112.711 36.456 112.711 37.192V58.552C112.711 59.256 112.503 59.848 112.087 60.328C111.671 60.776 111.095 61 110.359 61ZM90.6307 61C89.9267 61 89.3507 60.776 88.9027 60.328C88.4867 59.848 88.2787 59.256 88.2787 58.552V37.192C88.2787 36.456 88.4867 35.864 88.9027 35.416C89.3507 34.968 89.9267 34.744 90.6307 34.744C91.3667 34.744 91.9587 34.968 92.4067 35.416C92.8547 35.864 93.0787 36.456 93.0787 37.192V58.552C93.0787 59.256 92.8547 59.848 92.4067 60.328C91.9587 60.776 91.3667 61 90.6307 61ZM92.4547 49.528V45.208H109.303V49.528H92.4547ZM153.917 61.048C153.213 61.048 152.621 60.824 152.141 60.376C151.693 59.896 151.469 59.304 151.469 58.6V44.872C151.469 42.856 150.973 41.368 149.981 40.408C148.989 39.416 147.693 38.92 146.093 38.92C144.429 38.92 143.053 39.496 141.965 40.648C140.909 41.8 140.381 43.272 140.381 45.064H136.397C136.397 42.984 136.845 41.16 137.741 39.592C138.637 37.992 139.885 36.744 141.485 35.848C143.117 34.952 144.973 34.504 147.053 34.504C148.877 34.504 150.493 34.904 151.901 35.704C153.309 36.504 154.397 37.688 155.165 39.256C155.965 40.792 156.365 42.664 156.365 44.872V58.6C156.365 59.304 156.141 59.896 155.693 60.376C155.245 60.824 154.653 61.048 153.917 61.048ZM121.9 61.048C121.196 61.048 120.604 60.824 120.124 60.376C119.676 59.896 119.452 59.304 119.452 58.6V37.24C119.452 36.504 119.676 35.912 120.124 35.464C120.604 35.016 121.196 34.792 121.9 34.792C122.636 34.792 123.228 35.016 123.676 35.464C124.124 35.912 124.348 36.504 124.348 37.24V58.6C124.348 59.304 124.124 59.896 123.676 60.376C123.228 60.824 122.636 61.048 121.9 61.048ZM137.933 61.048C137.229 61.048 136.637 60.824 136.157 60.376C135.709 59.896 135.485 59.304 135.485 58.6V44.872C135.485 42.856 134.989 41.368 133.997 40.408C133.005 39.416 131.709 38.92 130.109 38.92C128.445 38.92 127.069 39.496 125.981 40.648C124.892 41.8 124.348 43.272 124.348 45.064H121.325C121.325 42.984 121.74 41.16 122.572 39.592C123.405 37.992 124.557 36.744 126.029 35.848C127.5 34.952 129.181 34.504 131.069 34.504C132.893 34.504 134.509 34.904 135.917 35.704C137.325 36.504 138.413 37.688 139.181 39.256C139.981 40.792 140.381 42.664 140.381 44.872V58.6C140.381 59.304 140.157 59.896 139.709 60.376C139.261 60.824 138.669 61.048 137.933 61.048ZM174.483 61.192C171.891 61.192 169.603 60.632 167.619 59.512C165.635 58.36 164.067 56.792 162.915 54.808C161.795 52.792 161.235 50.488 161.235 47.896C161.235 45.272 161.795 42.968 162.915 40.984C164.067 38.968 165.635 37.4 167.619 36.28C169.603 35.128 171.891 34.552 174.483 34.552C177.043 34.552 179.315 35.128 181.299 36.28C183.283 37.4 184.835 38.968 185.955 40.984C187.107 42.968 187.683 45.272 187.683 47.896C187.683 50.488 187.123 52.792 186.003 54.808C184.883 56.792 183.331 58.36 181.347 59.512C179.363 60.632 177.075 61.192 174.483 61.192ZM174.483 56.872C176.147 56.872 177.619 56.488 178.899 55.72C180.179 54.952 181.171 53.896 181.875 52.552C182.611 51.208 182.979 49.656 182.979 47.896C182.979 46.136 182.611 44.584 181.875 43.24C181.171 41.864 180.179 40.792 178.899 40.024C177.619 39.256 176.147 38.872 174.483 38.872C172.819 38.872 171.347 39.256 170.067 40.024C168.787 40.792 167.779 41.864 167.043 43.24C166.307 44.584 165.939 46.136 165.939 47.896C165.939 49.656 166.307 51.208 167.043 52.552C167.779 53.896 168.787 54.952 170.067 55.72C171.347 56.488 172.819 56.872 174.483 56.872ZM195.498 72.232C194.794 72.232 194.202 71.992 193.722 71.512C193.274 71.064 193.05 70.488 193.05 69.784V47.896C193.082 45.368 193.674 43.096 194.826 41.08C195.978 39.064 197.546 37.48 199.53 36.328C201.514 35.144 203.754 34.552 206.25 34.552C208.778 34.552 211.034 35.144 213.018 36.328C215.002 37.48 216.57 39.064 217.722 41.08C218.906 43.096 219.498 45.368 219.498 47.896C219.498 50.424 218.954 52.696 217.866 54.712C216.81 56.696 215.354 58.28 213.498 59.464C211.642 60.616 209.546 61.192 207.21 61.192C205.322 61.192 203.578 60.808 201.978 60.04C200.41 59.24 199.066 58.168 197.946 56.824V69.784C197.946 70.488 197.722 71.064 197.274 71.512C196.826 71.992 196.234 72.232 195.498 72.232ZM206.25 56.872C207.882 56.872 209.338 56.488 210.618 55.72C211.898 54.92 212.906 53.848 213.642 52.504C214.41 51.128 214.794 49.592 214.794 47.896C214.794 46.168 214.41 44.632 213.642 43.288C212.906 41.912 211.898 40.84 210.618 40.072C209.338 39.272 207.882 38.872 206.25 38.872C204.65 38.872 203.194 39.272 201.882 40.072C200.602 40.84 199.594 41.912 198.858 43.288C198.122 44.632 197.754 46.168 197.754 47.896C197.754 49.592 198.122 51.128 198.858 52.504C199.594 53.848 200.602 54.92 201.882 55.72C203.194 56.488 204.65 56.872 206.25 56.872ZM235.92 61.24C233.712 61.24 231.728 60.776 229.968 59.848C228.24 58.888 226.864 57.496 225.84 55.672C224.848 53.848 224.352 51.608 224.352 48.952V37.144C224.352 36.44 224.576 35.864 225.024 35.416C225.504 34.936 226.096 34.696 226.8 34.696C227.504 34.696 228.08 34.936 228.528 35.416C229.008 35.864 229.248 36.44 229.248 37.144V48.952C229.248 50.744 229.584 52.232 230.256 53.416C230.928 54.568 231.84 55.432 232.992 56.008C234.144 56.552 235.44 56.824 236.88 56.824C238.256 56.824 239.472 56.552 240.528 56.008C241.616 55.464 242.48 54.728 243.12 53.8C243.76 52.872 244.08 51.832 244.08 50.68H247.104C247.104 52.664 246.608 54.456 245.616 56.056C244.656 57.656 243.328 58.92 241.632 59.848C239.968 60.776 238.064 61.24 235.92 61.24ZM246.528 61C245.824 61 245.232 60.776 244.752 60.328C244.304 59.848 244.08 59.256 244.08 58.552V37.144C244.08 36.408 244.304 35.816 244.752 35.368C245.232 34.92 245.824 34.696 246.528 34.696C247.264 34.696 247.856 34.92 248.304 35.368C248.752 35.816 248.976 36.408 248.976 37.144V58.552C248.976 59.256 248.752 59.848 248.304 60.328C247.856 60.776 247.264 61 246.528 61ZM253.65 72.52C253.074 72.52 252.482 72.44 251.874 72.28C251.298 72.12 250.722 71.88 250.146 71.56C249.442 71.144 248.978 70.632 248.754 70.024C248.53 69.416 248.626 68.824 249.042 68.248C249.426 67.704 249.89 67.368 250.434 67.24C250.978 67.112 251.554 67.224 252.162 67.576C252.514 67.768 252.834 67.912 253.122 68.008C253.442 68.104 253.762 68.152 254.082 68.152C255.106 68.152 256.082 67.624 257.01 66.568C257.97 65.512 258.914 63.944 259.842 61.864L271.314 35.944C271.602 35.304 272.034 34.872 272.61 34.648C273.218 34.424 273.826 34.456 274.434 34.744C274.978 34.968 275.33 35.384 275.49 35.992C275.65 36.568 275.57 37.192 275.25 37.864L263.682 63.784C262.53 66.376 261.058 68.472 259.266 70.072C257.506 71.704 255.634 72.52 253.65 72.52ZM264.594 59.944C263.986 60.2 263.41 60.232 262.866 60.04C262.354 59.816 261.938 59.4 261.618 58.792L250.626 37.912C250.306 37.304 250.258 36.728 250.482 36.184C250.738 35.608 251.17 35.192 251.778 34.936C252.386 34.68 252.946 34.664 253.458 34.888C254.002 35.08 254.434 35.48 254.754 36.088L265.314 56.776C265.634 57.384 265.746 58.008 265.65 58.648C265.554 59.256 265.202 59.688 264.594 59.944ZM281.051 61C280.347 61 279.755 60.776 279.275 60.328C278.827 59.848 278.603 59.256 278.603 58.552V37.192C278.603 36.456 278.827 35.864 279.275 35.416C279.755 34.968 280.347 34.744 281.051 34.744C282.075 34.744 282.939 35.24 283.643 36.232L293.579 50.584L303.515 36.232C304.219 35.24 305.083 34.744 306.107 34.744C306.843 34.744 307.435 34.968 307.883 35.416C308.331 35.864 308.555 36.456 308.555 37.192V58.552C308.555 59.256 308.331 59.848 307.883 60.328C307.435 60.776 306.843 61 306.107 61C305.403 61 304.811 60.776 304.331 60.328C303.883 59.848 303.659 59.256 303.659 58.552V41.08L304.907 41.464L296.075 53.944C295.275 55.064 294.411 55.624 293.483 55.624C292.555 55.592 291.707 55.032 290.939 53.944L282.251 41.464L283.499 41.08V58.552C283.499 59.256 283.275 59.848 282.827 60.328C282.379 60.776 281.787 61 281.051 61Z" fill="black"/>
<path d="M349.676 1.08556C337.593 4.20069 329.097 14.962 329.002 27.1393C328.908 32.7088 331.551 41.771 333.156 41.771C333.628 41.771 333.156 39.9774 332.212 37.7119C329.569 31.9536 329.663 22.797 332.59 16.7556C335.327 10.7141 342.124 4.67268 347.976 2.97352C358.266 0.0471878 366.29 2.50153 377.806 12.1301C381.299 15.0564 384.414 17.2276 384.603 17.0388C385.358 16.2836 372.237 5.89985 367.611 3.53991C362.514 0.991165 354.207 -0.141609 349.676 1.08556Z" fill="black"/>
<path d="M329.877 67.5256C332.992 79.6085 343.753 88.1043 355.931 88.1987C361.5 88.2931 370.562 85.65 370.562 84.0452C370.562 83.5732 368.769 84.0452 366.503 84.9892C360.745 87.6323 351.588 87.5379 345.547 84.6116C339.505 81.8741 333.464 75.0774 331.765 69.2248C328.838 58.9354 331.293 50.9116 340.921 39.3951C343.848 35.9024 346.019 32.7872 345.83 32.5984C345.075 31.8433 334.691 44.9645 332.331 49.59C329.782 54.6875 328.65 62.9945 329.877 67.5256Z" fill="black"/>
<path d="M397.614 87.4122C409.697 84.2971 418.193 73.5358 418.287 61.3585C418.381 55.789 415.738 46.7268 414.133 46.7268C413.661 46.7268 414.133 48.5204 415.077 50.7859C417.721 56.5442 417.626 65.7008 414.7 71.7422C411.962 77.7837 405.166 83.8251 399.313 85.5243C389.024 88.4506 381 85.9963 369.483 76.3677C365.991 73.4414 362.875 71.2702 362.687 71.459C361.931 72.2142 375.053 82.598 379.678 84.9579C384.776 87.5066 393.083 88.6394 397.614 87.4122Z" fill="black"/>
<path d="M418.208 20.6756C415.093 8.59266 404.332 0.09686 392.155 0.00246167C386.585 -0.0919363 377.523 2.5512 377.523 4.15596C377.523 4.62795 379.317 4.15596 381.582 3.21198C387.34 0.568848 396.497 0.663246 402.538 3.58958C408.58 6.32711 414.621 13.1238 416.32 18.9764C419.247 29.2658 416.792 37.2896 407.164 48.8061C404.238 52.2988 402.066 55.4139 402.255 55.6027C403.01 56.3579 413.394 43.2366 415.754 38.6111C418.303 33.5137 419.436 25.2067 418.208 20.6756Z" fill="black"/>
<path d="M349.109 6.18304C340.613 8.54299 334.666 15.3396 333.534 24.1186C332.873 28.6497 334.478 36.5791 336.177 37.6175C336.743 37.9951 337.97 37.4287 339.009 36.3903C340.613 34.6912 340.708 34.0304 339.764 30.5377C337.121 20.8147 345.144 10.6197 355.339 10.6197C357.133 10.6197 361.286 12.1301 364.874 13.9237C370.632 16.9444 377.523 18.3604 377.523 16.4724C377.523 15.3396 367.328 8.35419 364.024 7.22142C358.643 5.33346 353.546 5.05027 349.109 6.18304Z" fill="#E4B302"/>
<path d="M411.907 20.6835C409.547 12.1877 402.75 6.24069 393.971 5.10792C389.44 4.44713 381.511 6.05189 380.472 7.75105C380.095 8.31744 380.661 9.54461 381.699 10.583C383.399 12.1877 384.059 12.2821 387.552 11.3382C397.275 8.69503 407.47 16.7188 407.47 26.9138C407.47 28.7074 405.96 32.8609 404.166 36.448C401.145 42.2062 399.729 49.0973 401.617 49.0973C402.75 49.0973 409.736 38.9023 410.868 35.5984C412.756 30.2177 413.04 25.1202 411.907 20.6835Z" fill="#37E328"/>
<path d="M335.004 68.0606C337.364 76.5564 344.161 82.5035 352.94 83.6362C357.471 84.297 365.4 82.6922 366.438 80.9931C366.816 80.4267 366.25 79.1995 365.211 78.1612C363.512 76.5564 362.851 76.462 359.359 77.406C349.636 80.0491 339.441 72.0253 339.441 61.8303C339.441 60.0368 340.951 55.8833 342.745 52.2962C345.765 46.5379 347.181 39.6469 345.293 39.6469C344.161 39.6469 337.175 49.8418 336.042 53.1458C334.154 58.5264 333.871 63.6239 335.004 68.0606Z" fill="#2815FF"/>
<path d="M398.149 82.5264C406.645 80.1665 412.592 73.3698 413.724 64.5909C414.385 60.0598 412.78 52.1304 411.081 51.092C410.515 50.7144 409.288 51.2808 408.249 52.3191C406.645 54.0183 406.55 54.6791 407.494 58.1718C410.137 67.8948 402.114 78.0897 391.919 78.0897C390.125 78.0897 385.972 76.5794 382.384 74.7858C376.626 71.7651 369.735 70.3491 369.735 72.2371C369.735 73.3699 379.93 80.3553 383.234 81.4881C388.615 83.376 393.712 83.6592 398.149 82.5264Z" fill="#D13A26"/>
<circle cx="374" cy="44" r="14" stroke="black" stroke-width="6"/>
<circle cx="352" cy="64" r="6" fill="#43FF32"/>
<circle cx="394" cy="64" r="6" fill="#FFC700"/>
<circle cx="394" cy="23" r="6" fill="#1400FF"/>
<circle cx="352" cy="23" r="6" fill="#FF4B33"/>
</svg>
