<svg width="329" height="86" viewBox="0 0 329 86" fill="none" xmlns="http://www.w3.org/2000/svg">
<rect width="40.9013" height="40.9013" rx="10" transform="matrix(0.866025 -0.5 0.866025 0.5 256.011 20.4507)" fill="#F79F79"/>
<rect width="41.0015" height="41.0015" rx="10" transform="matrix(0.866025 0.5 -2.20305e-08 1 254 23.7827)" fill="#E0906D"/>
<rect width="41.2464" height="41.2464" rx="10" transform="matrix(0.866025 -0.5 2.20305e-08 1 293.249 44.2223)" fill="#BE7B5E"/>
<path d="M6.768 59C6.064 59 5.472 58.776 4.992 58.328C4.544 57.848 4.32 57.256 4.32 56.552V35.144C4.384 34.44 4.64 33.864 5.088 33.416C5.536 32.968 6.096 32.744 6.768 32.744C7.504 32.744 8.096 32.968 8.544 33.416C8.992 33.864 9.216 34.456 9.216 35.192V43.448H18.528V44.408C20.288 44.408 21.84 44.712 23.184 45.32C24.56 45.928 25.632 46.776 26.4 47.864C27.168 48.92 27.552 50.152 27.552 51.56C27.552 53 27.168 54.28 26.4 55.4C25.632 56.52 24.56 57.4 23.184 58.04C21.84 58.68 20.288 59 18.528 59H6.768ZM9.216 54.44H18.528C19.808 54.44 20.848 54.136 21.648 53.528C22.448 52.888 22.848 52.072 22.848 51.08C22.848 50.024 22.448 49.16 21.648 48.488C20.848 47.816 19.808 47.48 18.528 47.48H9.216V54.44ZM14.736 46.04V43.448H19.296C20.096 43.448 20.752 43.144 21.264 42.536C21.776 41.896 22.032 41.096 22.032 40.136C22.032 39.304 21.728 38.616 21.12 38.072C20.512 37.528 19.744 37.256 18.816 37.256H6.816V32.744H18.816C20.32 32.744 21.648 33.048 22.8 33.656C23.984 34.232 24.912 35.048 25.584 36.104C26.256 37.128 26.592 38.312 26.592 39.656C26.592 41.512 25.888 43.048 24.48 44.264C23.104 45.448 21.376 46.04 19.296 46.04H14.736ZM43.986 59.192C41.33 59.192 38.962 58.632 36.882 57.512C34.834 56.36 33.218 54.792 32.034 52.808C30.882 50.792 30.306 48.488 30.306 45.896C30.306 43.272 30.85 40.968 31.938 38.984C33.058 36.968 34.594 35.4 36.546 34.28C38.498 33.128 40.738 32.552 43.266 32.552C45.762 32.552 47.906 33.112 49.698 34.232C51.49 35.32 52.85 36.84 53.778 38.792C54.738 40.712 55.218 42.936 55.218 45.464C55.218 46.072 55.01 46.584 54.594 47C54.178 47.384 53.65 47.576 53.01 47.576H33.666V43.736H52.866L50.898 45.08C50.866 43.48 50.546 42.056 49.938 40.808C49.33 39.528 48.466 38.52 47.346 37.784C46.226 37.048 44.866 36.68 43.266 36.68C41.442 36.68 39.874 37.08 38.562 37.88C37.282 38.68 36.306 39.784 35.634 41.192C34.962 42.568 34.626 44.136 34.626 45.896C34.626 47.656 35.026 49.224 35.826 50.6C36.626 51.976 37.73 53.064 39.138 53.864C40.546 54.664 42.162 55.064 43.986 55.064C44.978 55.064 45.986 54.888 47.01 54.536C48.066 54.152 48.914 53.72 49.554 53.24C50.034 52.888 50.546 52.712 51.09 52.712C51.666 52.68 52.162 52.84 52.578 53.192C53.122 53.672 53.41 54.2 53.442 54.776C53.474 55.352 53.218 55.848 52.674 56.264C51.586 57.128 50.226 57.832 48.594 58.376C46.994 58.92 45.458 59.192 43.986 59.192ZM61.9905 70.232C61.2865 70.232 60.6945 69.992 60.2145 69.512C59.7665 69.064 59.5425 68.488 59.5425 67.784V45.896C59.5745 43.368 60.1665 41.096 61.3185 39.08C62.4705 37.064 64.0385 35.48 66.0225 34.328C68.0065 33.144 70.2465 32.552 72.7425 32.552C75.2705 32.552 77.5265 33.144 79.5105 34.328C81.4945 35.48 83.0625 37.064 84.2145 39.08C85.3985 41.096 85.9905 43.368 85.9905 45.896C85.9905 48.424 85.4465 50.696 84.3585 52.712C83.3025 54.696 81.8465 56.28 79.9905 57.464C78.1345 58.616 76.0385 59.192 73.7025 59.192C71.8145 59.192 70.0705 58.808 68.4705 58.04C66.9025 57.24 65.5585 56.168 64.4385 54.824V67.784C64.4385 68.488 64.2145 69.064 63.7665 69.512C63.3185 69.992 62.7265 70.232 61.9905 70.232ZM72.7425 54.872C74.3745 54.872 75.8305 54.488 77.1105 53.72C78.3905 52.92 79.3985 51.848 80.1345 50.504C80.9025 49.128 81.2865 47.592 81.2865 45.896C81.2865 44.168 80.9025 42.632 80.1345 41.288C79.3985 39.912 78.3905 38.84 77.1105 38.072C75.8305 37.272 74.3745 36.872 72.7425 36.872C71.1425 36.872 69.6865 37.272 68.3745 38.072C67.0945 38.84 66.0865 39.912 65.3505 41.288C64.6145 42.632 64.2465 44.168 64.2465 45.896C64.2465 47.592 64.6145 49.128 65.3505 50.504C66.0865 51.848 67.0945 52.92 68.3745 53.72C69.6865 54.488 71.1425 54.872 72.7425 54.872ZM103.276 59.192C100.716 59.192 98.4285 58.616 96.4125 57.464C94.4285 56.28 92.8605 54.696 91.7085 52.712C90.5885 50.696 90.0285 48.424 90.0285 45.896C90.0285 43.304 90.5885 41 91.7085 38.984C92.8285 36.968 94.3645 35.4 96.3165 34.28C98.2685 33.128 100.508 32.552 103.036 32.552C104.924 32.552 106.652 32.92 108.22 33.656C109.788 34.36 111.196 35.432 112.444 36.872C112.892 37.384 113.052 37.912 112.924 38.456C112.796 39 112.444 39.48 111.868 39.896C111.42 40.216 110.924 40.328 110.38 40.232C109.836 40.104 109.34 39.816 108.892 39.368C107.324 37.704 105.372 36.872 103.036 36.872C101.404 36.872 99.9645 37.256 98.7165 38.024C97.4685 38.76 96.4925 39.8 95.7885 41.144C95.0845 42.488 94.7325 44.072 94.7325 45.896C94.7325 47.624 95.0845 49.16 95.7885 50.504C96.5245 51.848 97.5325 52.92 98.8125 53.72C100.092 54.488 101.58 54.872 103.276 54.872C104.396 54.872 105.372 54.744 106.204 54.488C107.068 54.2 107.852 53.768 108.556 53.192C109.068 52.776 109.596 52.552 110.14 52.52C110.684 52.456 111.164 52.6 111.58 52.952C112.124 53.4 112.428 53.912 112.492 54.488C112.556 55.032 112.364 55.528 111.916 55.976C109.612 58.12 106.732 59.192 103.276 59.192ZM152.745 59.048C152.041 59.048 151.449 58.824 150.969 58.376C150.521 57.896 150.297 57.304 150.297 56.6V42.872C150.297 40.856 149.801 39.368 148.809 38.408C147.817 37.416 146.521 36.92 144.921 36.92C143.257 36.92 141.881 37.496 140.793 38.648C139.737 39.8 139.209 41.272 139.209 43.064H135.225C135.225 40.984 135.673 39.16 136.569 37.592C137.465 35.992 138.713 34.744 140.313 33.848C141.945 32.952 143.801 32.504 145.881 32.504C147.705 32.504 149.321 32.904 150.729 33.704C152.137 34.504 153.225 35.688 153.993 37.256C154.793 38.792 155.193 40.664 155.193 42.872V56.6C155.193 57.304 154.969 57.896 154.521 58.376C154.073 58.824 153.481 59.048 152.745 59.048ZM120.729 59.048C120.025 59.048 119.433 58.824 118.953 58.376C118.505 57.896 118.281 57.304 118.281 56.6V35.24C118.281 34.504 118.505 33.912 118.953 33.464C119.433 33.016 120.025 32.792 120.729 32.792C121.465 32.792 122.057 33.016 122.505 33.464C122.953 33.912 123.177 34.504 123.177 35.24V56.6C123.177 57.304 122.953 57.896 122.505 58.376C122.057 58.824 121.465 59.048 120.729 59.048ZM136.761 59.048C136.057 59.048 135.465 58.824 134.985 58.376C134.537 57.896 134.313 57.304 134.313 56.6V42.872C134.313 40.856 133.817 39.368 132.825 38.408C131.833 37.416 130.537 36.92 128.937 36.92C127.273 36.92 125.897 37.496 124.809 38.648C123.721 39.8 123.177 41.272 123.177 43.064H120.153C120.153 40.984 120.569 39.16 121.401 37.592C122.233 35.992 123.385 34.744 124.857 33.848C126.329 32.952 128.009 32.504 129.897 32.504C131.721 32.504 133.337 32.904 134.745 33.704C136.153 34.504 137.241 35.688 138.009 37.256C138.809 38.792 139.209 40.664 139.209 42.872V56.6C139.209 57.304 138.985 57.896 138.537 58.376C138.089 58.824 137.497 59.048 136.761 59.048ZM172.351 59.192C170.015 59.192 167.919 58.616 166.063 57.464C164.207 56.28 162.735 54.696 161.647 52.712C160.591 50.696 160.063 48.424 160.063 45.896C160.063 43.368 160.639 41.096 161.791 39.08C162.975 37.064 164.559 35.48 166.543 34.328C168.559 33.144 170.815 32.552 173.311 32.552C175.807 32.552 178.047 33.144 180.031 34.328C182.015 35.48 183.583 37.064 184.735 39.08C185.919 41.096 186.511 43.368 186.511 45.896H184.639C184.639 48.424 184.095 50.696 183.007 52.712C181.951 54.696 180.495 56.28 178.639 57.464C176.783 58.616 174.687 59.192 172.351 59.192ZM173.311 54.872C174.943 54.872 176.399 54.488 177.679 53.72C178.959 52.92 179.967 51.848 180.703 50.504C181.439 49.128 181.807 47.592 181.807 45.896C181.807 44.168 181.439 42.632 180.703 41.288C179.967 39.912 178.959 38.84 177.679 38.072C176.399 37.272 174.943 36.872 173.311 36.872C171.711 36.872 170.255 37.272 168.943 38.072C167.663 38.84 166.639 39.912 165.871 41.288C165.135 42.632 164.767 44.168 164.767 45.896C164.767 47.592 165.135 49.128 165.871 50.504C166.639 51.848 167.663 52.92 168.943 53.72C170.255 54.488 171.711 54.872 173.311 54.872ZM184.063 59.048C183.359 59.048 182.767 58.824 182.287 58.376C181.839 57.896 181.615 57.304 181.615 56.6V49.256L182.527 44.168L186.511 45.896V56.6C186.511 57.304 186.271 57.896 185.791 58.376C185.343 58.824 184.767 59.048 184.063 59.048ZM213.19 58.424C212.774 58.808 212.182 59 211.414 59C210.678 58.968 210.102 58.744 209.686 58.328L198.022 45.8L209.014 33.512C209.43 33.064 210.006 32.808 210.742 32.744C211.51 32.68 212.102 32.84 212.518 33.224C212.998 33.672 213.27 34.184 213.334 34.76C213.398 35.304 213.222 35.8 212.806 36.248L204.118 45.56L213.334 55.448C213.75 55.864 213.958 56.36 213.958 56.936C213.958 57.48 213.702 57.976 213.19 58.424ZM194.182 59.048C193.478 59.048 192.918 58.824 192.502 58.376C192.086 57.896 191.878 57.304 191.878 56.6V35.192C191.878 34.456 192.086 33.864 192.502 33.416C192.918 32.968 193.478 32.744 194.182 32.744C194.918 32.744 195.51 32.968 195.958 33.416C196.438 33.864 196.678 34.456 196.678 35.192V43.208H202.822V47.72H196.678V56.6C196.678 57.304 196.438 57.896 195.958 58.376C195.51 58.824 194.918 59.048 194.182 59.048ZM229.076 59.24C226.868 59.24 224.884 58.776 223.124 57.848C221.396 56.888 220.02 55.496 218.996 53.672C218.004 51.848 217.508 49.608 217.508 46.952V35.144C217.508 34.44 217.732 33.864 218.18 33.416C218.66 32.936 219.252 32.696 219.956 32.696C220.66 32.696 221.236 32.936 221.684 33.416C222.164 33.864 222.404 34.44 222.404 35.144V46.952C222.404 48.744 222.74 50.232 223.412 51.416C224.084 52.568 224.996 53.432 226.148 54.008C227.3 54.552 228.596 54.824 230.036 54.824C231.412 54.824 232.628 54.552 233.684 54.008C234.772 53.464 235.636 52.728 236.276 51.8C236.916 50.872 237.236 49.832 237.236 48.68H240.26C240.26 50.664 239.764 52.456 238.772 54.056C237.812 55.656 236.484 56.92 234.788 57.848C233.124 58.776 231.22 59.24 229.076 59.24ZM239.684 59C238.98 59 238.388 58.776 237.908 58.328C237.46 57.848 237.236 57.256 237.236 56.552V35.144C237.236 34.408 237.46 33.816 237.908 33.368C238.388 32.92 238.98 32.696 239.684 32.696C240.42 32.696 241.012 32.92 241.46 33.368C241.908 33.816 242.132 34.408 242.132 35.144V56.552C242.132 57.256 241.908 57.848 241.46 58.328C241.012 58.776 240.42 59 239.684 59Z" fill="black"/>
</svg>
